<?xml version="1.0" standalone="no"?>
<!DOCTYPE svg PUBLIC "-//W3C//DTD SVG 20010904//EN"
 "http://www.w3.org/TR/2001/REC-SVG-20010904/DTD/svg10.dtd">
<svg version="1.0" xmlns="http://www.w3.org/2000/svg"
 width="1280.000000pt" height="1280.000000pt" viewBox="0 0 1280.000000 1280.000000"
 preserveAspectRatio="xMidYMid meet">
<g transform="translate(0.000000,1280.000000) scale(0.100000,-0.100000)"
fill="#000000" stroke="none">
<path d="M4410 9249 c-301 -22 -628 -74 -837 -134 l-53 -16 0 -304 0 -304
-132 -41 c-143 -45 -229 -78 -375 -142 l-92 -41 -3 -131 -3 -131 -297 -3 -298
-2 0 -2230 0 -2230 4080 0 4080 0 0 2225 0 2225 -297 2 -298 3 -5 134 -5 135
-130 57 c-71 31 -195 77 -275 103 -80 26 -155 52 -167 57 l-23 9 0 299 c0 276
-1 301 -17 310 -19 9 -245 62 -348 81 -758 136 -1687 86 -2300 -124 -55 -18
-125 -44 -156 -56 l-55 -21 -75 29 c-319 127 -699 205 -1173 242 -146 11 -588
11 -746 -1z m690 -219 c333 -23 602 -62 853 -126 118 -30 307 -92 325 -106 17
-14 18 -3994 1 -4000 -7 -2 -62 13 -123 33 -398 133 -835 194 -1386 192 -347
-1 -563 -17 -835 -64 -71 -12 -141 -23 -155 -23 l-25 -1 -3 1997 -2 1998 22 5
c52 12 333 54 458 69 282 34 608 44 870 26z m3385 -25 c157 -15 365 -44 495
-68 l65 -12 3 -1998 2 -1997 -21 0 c-12 0 -74 9 -138 20 -338 57 -597 74 -985
67 -492 -9 -881 -67 -1250 -187 -69 -23 -131 -38 -136 -35 -7 4 -10 687 -10
1990 l0 1985 23 14 c37 24 263 91 434 130 255 57 508 90 848 110 120 7 514 -4
670 -19z m-4967 -2549 c2 -1477 4 -1797 15 -1793 7 3 67 16 133 31 355 76 665
106 1114 106 685 0 1170 -76 1596 -251 29 -11 38 -10 90 13 390 171 1201 272
1834 228 283 -20 728 -91 905 -145 28 -8 53 -15 58 -15 4 0 7 622 7 1383 0
760 3 1575 7 1810 l6 429 36 -7 c42 -8 321 -113 336 -126 12 -11 7 -3960 -5
-3972 -4 -5 -75 14 -156 41 -885 300 -2068 306 -2955 16 l-141 -46 -87 30
c-423 147 -862 219 -1402 229 -596 12 -1093 -58 -1587 -223 -91 -30 -168 -52
-172 -47 -6 6 -17 3919 -11 3969 0 6 27 21 59 34 118 47 297 109 307 106 7 -2
11 -613 13 -1800z m-614 1308 c15 -6 16 -190 16 -1985 0 -1206 4 -1979 9
-1979 5 0 50 20 99 45 216 107 464 189 772 254 782 166 1748 120 2432 -115 73
-25 143 -48 155 -51 12 -3 57 8 100 25 237 90 594 168 962 209 225 25 882 25
1096 0 477 -57 880 -163 1194 -313 74 -35 135 -64 137 -64 2 0 5 894 6 1988
l3 1987 185 0 185 0 0 -2000 0 -2000 -3835 -3 c-2109 -1 -3845 0 -3858 3 l-22
5 2 1993 3 1992 85 6 c129 8 256 10 274 3z"/>
</g>
</svg>
